<?xml version="1.0" encoding="utf-8"?>
<!-- Generator: Adobe Illustrator 25.2.3, SVG Export Plug-In . SVG Version: 6.00 Build 0)  -->
<svg version="1.1" id="Layer_1" xmlns="http://www.w3.org/2000/svg" xmlns:xlink="http://www.w3.org/1999/xlink" x="0px" y="0px"
	 viewBox="0 0 1909.2 454.6" style="enable-background:new 0 0 1909.2 454.6;" xml:space="preserve">
<style type="text/css">
	.st0{fill:#92E9FE;}
	.st1{fill:#F27921;}
</style>
<path class="st0" d="M256.9,52.8c-4-6.2-14.6-17.8-21.6-21.3c-17.2-8.6-37.8-12.9-61.9-12.9c-20.2,0-38.6,3.4-55.2,10.1
	c-16,6.3-30.4,16-42.3,28.5C64.1,69.6,55,84.4,49.1,100.6c-6.3,17.3-9.4,35.5-9.3,53.9c0,19.1,3.4,38,10.2,55.8
	c6.6,17.6,16.2,33.9,28.3,48.2c12,14.2,25.8,25.2,40.2,35.2c9.8,6.8,23.1,15.4,73.9,29.5c0,0-24.8,1.5-33.1,1.3
	c-15.7-0.5-42-4.1-61.5-12.3c-19.2-8-36.6-19.8-51.2-34.5c-14.7-14.8-26.3-32.2-34.3-51.4C4.1,206.6-0.1,185.5,0,164.3
	c-0.1-21.6,4-43,12-63c15.8-40.1,47.2-72,87-88.4C119.5,4.3,141.8,0,165.8,0c10.2,0.1,20.4,0.8,30.6,2.1c11.3,1.4,22.8,3.2,34.7,5.5
	l6.1,1.1c10.1,2.3,17.7,3.4,22.8,3.4c1.9-0.1,3.9-0.5,5.7-1.1c1.5-0.8,10.5-2.9,10.5-2.9l0.3,82.3l-10.1,0.8
	C266.4,91.2,264.5,64.5,256.9,52.8z"/>
<path class="st0" d="M887.8,48.1l0.1,7.1L866,60.3l0.2,235.1l-6.2-0.7L678.7,115l-0.2,162.8l21.8,6.6l0.1,7.5h-58.3v-6.8l18.7-6.6
	l-0.4-228l9,0.3l178.6,183V59.4l-20.6-4.2V48L887.8,48.1z"/>
<path class="st0" d="M1166.2,48.1l0.1,7.1l-21.9,5.1l0.2,235.1l-6.2-0.7L957.1,115l-0.2,162.8l21.8,6.6l0.1,7.5h-58.3v-6.8l18.7-6.6
	l-0.4-228l9,0.3l178.5,183V59.4l-20.6-4.2V48L1166.2,48.1z"/>
<path class="st0" d="M1200.5,296.4l0.1-8.6l20.4-6.9V63.1l-22.1-6.3v-9.5l144.1,0.3v33.4l-6.7,0.6l-8.4-15.7l-77.2-0.6v97l70.1-0.4
	c0,0,2.8-2.9,3-10.2h6.6l0.2,36.8h-5.6c-1.7-7.5-4.1-10.1-4.1-10.1l-69.2-0.2l-0.4,101.1c0,0,68.8,1.7,72.2-0.9
	c2.7-2.1,9.9-26.1,9.9-26.1h10.5l-5.8,44.1L1200.5,296.4z"/>
<path class="st0" d="M1581.2,267.2c-14.7,18.1-30.1,23.5-42,25.8c-13.8,2.6-27.9,3.8-41.9,3.6c-49.9,0.1-95-29.8-114.4-75.8
	c-6.4-15.1-9.7-31.3-9.6-47.7c-0.1-16.6,3.1-33.1,9.3-48.6c12.3-31,36.8-55.6,67.7-68.2c16.5-6.7,34.2-10.1,52-10
	c7.9,0,15.8,0.6,23.7,1.6c17.9,2.3,39,10.3,50.6,11.8c4.7,0.6,14.1-1.5,14.1-1.5v59.2l-4.2,0.3c0,0-3.3-13.6-9.7-24.6
	c-14.2-24.6-50.2-28.8-68.9-28.8c-15.7,0-31.8,1-44.7,6.2s-21.9,10.4-31,19.9c-9.2,9.6-16.2,21-20.8,33.5
	c-4.9,13.3-7.4,27.4-7.2,41.6c0,14.7,2.7,29.3,8,43c5.1,13.6,12.6,26.1,22,37.2c8.9,10.6,19.9,19.3,32.3,25.6
	c11.8,6,24.8,9.2,38.1,9.2c6.8,0,13.6-0.5,20.3-1.5c7.3-1,14.9-1.8,22.2-4.5c28-10.4,40.1-36.7,43-40.6
	C1590.1,234,1589.4,257,1581.2,267.2z"/>
<path class="st0" d="M1816.4,47.1l7.2,5.9l0.1,30.5l-1.8-0.1c0,0-7.9-12.4-11-16.6c-1.9-2.6-7.5-2.4-7.5-2.4l-66.3-0.1l-0.1,215.6
	l24.3,7l-0.3,9.4h-73.2v-9.8l20.6-5.7l0.2-215.7h-57.7c0,0-9.2,0-13.3,3.8c-3.6,3.3-17.3,21.7-17.3,21.7l-1.1-4.2l10.7-35.6l6.1-3.3
	L1816.4,47.1z"/>
<path class="st0" d="M620.5,114.5c-7.6-21-19.3-40.3-34.5-56.6C570.9,41.6,552.2,29,530,20c-22.2-9-47-13.5-74.5-13.4
	c-47-0.2-92.1,18.6-125,52.2c-16.2,16.5-29.2,35.9-38.1,57.3c-27.8,66.5-12.7,143.1,38.1,194.2c16.2,16.4,35.5,29.4,56.8,38.3
	c17.5,7.4,44.6,12.3,80.2,7.6c-26.1-4.7-54.9-19.6-64.7-26.6c-15.1-10.8-30.3-23.3-42.2-39.3c-12.1-16.4-21.5-34.7-27.8-54.1
	c-6.6-20.2-9.9-41.3-9.8-62.5c0-21.3,3.2-41,9.7-59.1s15.6-33.6,27.5-46.5c11.8-12.8,26.2-23,42.3-29.9c16.8-7.1,34.8-10.7,53-10.5
	c18.7-0.2,37.1,3.8,54.1,11.6c16.9,7.9,31.8,19.5,43.4,34.1c12.2,15,21.8,33.2,28.6,54.5s10.3,45.2,10.3,71.6
	c0,21.3-3.4,40.8-10.1,58.3c-0.2,0.6-2.6,9.5-10,27.2c-5.4,13-24.4,33.9-25.6,53.4c20.6-12.2,31.2-22.7,34.5-26
	c16.3-16.3,29.2-35.6,37.9-57c9.1-22,13.7-45.8,13.7-71.4C632.3,159.1,628.4,136,620.5,114.5z"/>
<image style="overflow:visible;enable-background:new    ;" width="477" height="549" xlink:href="8B016CB4.png"  transform="matrix(0.39 0 0 0.39 375.0735 82.07)">
</image>
<path class="st1" d="M532,433.9v-70.4h24.2c4.2-0.1,8.4,0.2,12.5,1c3.8,0.8,7.4,2.5,10.3,5c3.8,3.2,6.6,7.3,8.3,12
	c1.9,5.4,2.9,11,2.8,16.7c0.1,4.8-0.6,9.6-1.9,14.2c-1,3.7-2.6,7.1-4.8,10.2c-1.7,2.5-3.9,4.7-6.4,6.4c-2.6,1.7-5.4,2.9-8.4,3.5
	c-3.7,0.8-7.5,1.3-11.3,1.2L532,433.9z M541.3,425.6h15c3.7,0.1,7.4-0.3,10.9-1.3c2.4-0.7,4.5-1.9,6.3-3.6c2.4-2.5,4.2-5.6,5.2-8.9
	c1.3-4.4,2-9,1.8-13.6c0-7.3-1.2-13-3.6-17c-2.4-4-5.3-6.6-8.8-8c-2.5-1-6.5-1.4-12-1.4h-14.8L541.3,425.6z"/>
<path class="st1" d="M601.9,373.5v-9.9h8.6v9.9H601.9z M601.9,433.9v-51h8.6v51H601.9z"/>
<path class="st1" d="M657,427.6c-2.7,2.4-5.9,4.4-9.2,5.8c-3,1.1-6.3,1.7-9.5,1.7c-5.6,0-9.9-1.4-12.9-4.1c-3-2.7-4.6-6.5-4.5-10.5
	c0-2.4,0.6-4.7,1.7-6.8c1.1-2,2.6-3.7,4.5-5c1.9-1.3,4-2.2,6.2-2.8c2.5-0.6,5.1-1,7.7-1.3c7-0.8,12.1-1.8,15.4-3c0-1.2,0-1.9,0-2.2
	c0-3.5-0.8-6-2.5-7.5c-2.2-2-5.5-2.9-9.8-2.9c-4.1,0-7.1,0.7-9,2.1s-3.4,4-4.3,7.6l-8.5-1.1c0.6-3.2,1.9-6.2,3.8-8.8
	c2-2.4,4.7-4.2,7.6-5.1c3.7-1.3,7.6-1.9,11.6-1.8c3.6-0.1,7.2,0.4,10.6,1.5c2.3,0.7,4.4,2.1,6,3.9c1.4,1.7,2.3,3.7,2.7,5.9
	c0.4,2.6,0.5,5.3,0.4,8v11.5c0,8,0.2,13.1,0.6,15.2c0.4,2.2,1.1,4.2,2.2,6.1h-9C657.8,431.9,657.2,429.8,657,427.6z M656.3,408.3
	c-3.1,1.3-7.8,2.4-14.1,3.3c-2.6,0.3-5.1,0.9-7.5,1.7c-1.4,0.6-2.6,1.6-3.4,2.8c-2,3.2-1.4,7.4,1.4,9.9c1.7,1.5,4.3,2.3,7.7,2.3
	c3.1,0.1,6.2-0.7,8.9-2.2c2.5-1.3,4.5-3.4,5.7-6c0.9-2,1.4-4.8,1.4-8.6L656.3,408.3z"/>
<path class="st1" d="M676.8,438.2l8.4,1.2c0.1,2.2,1.2,4.3,2.9,5.7c2.1,1.6,5.1,2.4,8.8,2.4c4,0,7.1-0.8,9.3-2.4
	c2.2-1.7,3.8-4,4.4-6.7c0.5-1.8,0.7-5.5,0.6-11.1c-3.4,4.3-8.6,6.7-14.1,6.7c-7,0-12.4-2.5-16.3-7.6c-3.9-5.3-5.9-11.7-5.8-18.2
	c0-4.6,0.9-9.2,2.6-13.5c1.6-3.9,4.2-7.2,7.7-9.5c3.5-2.3,7.6-3.5,11.8-3.4c5.8-0.1,11.4,2.6,14.9,7.3v-6.1h8V427
	c0,7.9-0.8,13.6-2.4,16.9c-1.7,3.4-4.4,6.1-7.7,7.9c-4,2.1-8.5,3.1-13,2.9c-6.1,0-11-1.4-14.7-4.1
	C678.5,447.8,676.7,443.7,676.8,438.2z M684,407.5c0,6.7,1.3,11.5,4,14.6c4.7,5.5,13.1,6.2,18.6,1.4c0.5-0.4,1-0.9,1.4-1.4
	c2.7-3.1,4-7.9,4-14.4c0-6.2-1.4-11-4.2-14.1c-2.4-3-6.1-4.8-10-4.8c-3.8,0-7.4,1.7-9.8,4.7C685.4,396.7,684,401.4,684,407.5z"/>
<path class="st1" d="M733.1,433.9v-51h7.8v7.2c3.7-5.6,9.1-8.4,16.2-8.4c2.9,0,5.8,0.5,8.5,1.7c2.3,0.9,4.3,2.4,5.8,4.3
	c1.3,1.9,2.2,4.1,2.7,6.4c0.4,2.8,0.6,5.6,0.5,8.4v31.4h-8.7v-31c0.1-2.7-0.2-5.3-1-7.9c-0.7-1.8-1.9-3.2-3.6-4.2
	c-1.8-1.1-3.9-1.6-6-1.6c-3.5-0.1-6.9,1.2-9.5,3.5c-2.7,2.3-4,6.8-4,13.3V434L733.1,433.9z"/>
<path class="st1" d="M784.6,408.4c0-9.4,2.6-16.4,7.9-21c4.5-3.8,10.1-5.8,16-5.7c7,0,12.7,2.3,17.2,6.9c4.5,4.6,6.7,10.9,6.7,19
	c0,6.6-1,11.7-3,15.5c-1.9,3.7-4.9,6.8-8.6,8.8c-3.8,2.1-8,3.1-12.3,3.1c-7.1,0-12.9-2.3-17.3-6.9
	C786.7,423.6,784.5,417,784.6,408.4z M793.5,408.4c0,6.5,1.4,11.4,4.3,14.7c5.2,5.9,14.1,6.6,20.1,1.4c0,0,0,0,0,0
	c0.5-0.4,1-0.9,1.4-1.4c2.8-3.3,4.3-8.2,4.3-14.9c0-6.3-1.4-11.1-4.3-14.3c-5.2-5.9-14.2-6.5-20.1-1.3c0,0,0,0,0,0
	c-0.5,0.4-0.9,0.9-1.3,1.3C794.9,397.1,793.5,401.9,793.5,408.4L793.5,408.4z"/>
<path class="st1" d="M839,418.7l8.5-1.3c0.3,3,1.7,5.9,4,7.9c2.2,1.8,5.3,2.7,9.2,2.7c4,0,6.9-0.8,8.8-2.4c1.8-1.3,2.9-3.4,2.9-5.7
	c0-1.9-0.9-3.6-2.5-4.6c-1.2-0.8-4.1-1.8-8.8-2.9c-4.5-1-8.8-2.4-13.1-4.2c-4.6-2.1-7.5-6.7-7.5-11.7c0-2.2,0.5-4.4,1.6-6.3
	c1-1.9,2.5-3.6,4.2-4.8c1.7-1.1,3.5-2,5.5-2.5c2.4-0.7,4.9-1,7.5-1c3.6-0.1,7.2,0.5,10.5,1.7c2.6,0.9,5,2.5,6.7,4.7
	c1.6,2.4,2.6,5.1,3,7.9l-8.5,1.1c-0.3-2.4-1.5-4.6-3.3-6.1c-1.8-1.5-4.4-2.2-7.8-2.2c-4,0-6.8,0.6-8.5,2c-1.5,1-2.5,2.8-2.5,4.6
	c0,1.1,0.4,2.1,1.1,3c0.9,1.1,2,1.8,3.3,2.3c0.9,0.3,3.4,1.1,7.6,2.2c4.3,1.1,8.6,2.4,12.8,4c2.3,0.9,4.3,2.5,5.7,4.5
	c1.4,2.2,2.2,4.8,2.1,7.4c0,2.9-0.9,5.7-2.5,8.1c-1.8,2.6-4.3,4.7-7.3,5.9c-3.4,1.4-7.1,2.2-10.8,2.1c-6.6,0-11.7-1.4-15.2-4.1
	S840,424.1,839,418.7z"/>
<path class="st1" d="M891.7,373.5v-9.9h8.7v9.9H891.7z M891.7,433.9v-51h8.7v51H891.7z"/>
<path class="st1" d="M910,418.7l8.5-1.3c0.3,3,1.7,5.9,4,7.9c2.2,1.8,5.3,2.7,9.2,2.7s6.9-0.8,8.8-2.4c1.8-1.3,2.9-3.4,2.9-5.7
	c0-1.9-0.9-3.6-2.5-4.6c-1.2-0.8-4.1-1.8-8.8-2.9c-4.5-1-8.9-2.4-13.1-4.2c-2.3-1-4.2-2.7-5.6-4.9c-1.3-2.1-1.9-4.4-1.9-6.9
	c0-2.2,0.5-4.4,1.6-6.3c1-1.9,2.5-3.6,4.2-4.8c1.7-1.1,3.5-2,5.5-2.5c2.4-0.7,4.9-1,7.5-1c3.6-0.1,7.2,0.5,10.5,1.7
	c2.6,0.9,5,2.5,6.7,4.7c1.6,2.4,2.6,5.1,3,7.9l-8.5,1.1c-0.3-2.4-1.5-4.6-3.3-6.1c-1.8-1.5-4.4-2.2-7.8-2.2c-4,0-6.8,0.6-8.5,2
	c-1.5,1-2.5,2.8-2.5,4.6c0,1.1,0.4,2.2,1.1,3c0.9,1.1,2,1.9,3.3,2.3c0.9,0.3,3.4,1.1,7.6,2.2c4.3,1.1,8.6,2.4,12.8,4
	c2.3,0.9,4.3,2.5,5.7,4.5c1.4,2.2,2.1,4.8,2.1,7.4c0,2.9-0.9,5.7-2.5,8.1c-1.8,2.6-4.3,4.7-7.3,5.9c-3.4,1.4-7.1,2.2-10.8,2.1
	c-6.6,0-11.7-1.4-15.2-4.1S911,424.1,910,418.7z"/>
<path class="st0" d="M998,433.9h-8v-70.4h8.6v25.1c3.3-4.4,8.5-7,14-6.9c3.1,0,6.1,0.6,8.9,1.9c2.7,1.2,5.1,3,6.9,5.3
	c1.9,2.5,3.3,5.3,4.2,8.3c1,3.4,1.6,6.9,1.5,10.4c0,8.7-2.2,15.5-6.5,20.3c-3.9,4.6-9.6,7.2-15.6,7.2c-5.7,0.2-11.1-2.7-14.2-7.5
	L998,433.9z M997.9,408.1c0,6.1,0.8,10.5,2.5,13.2c2.7,4.5,6.4,6.7,11,6.7c3.8,0,7-1.6,9.8-4.9c2.8-3.3,4.1-8.2,4.1-14.7
	c0-6.7-1.3-11.6-4-14.7c-2.3-3-5.8-4.8-9.6-4.8c-3.8,0-7,1.6-9.8,4.9S997.8,401.8,997.9,408.1L997.9,408.1z"/>
<path class="st0" d="M1079.6,417.5l8.9,1.1c-1.2,4.8-3.9,9.1-7.8,12.1c-3.8,2.9-8.7,4.3-14.6,4.3c-7.5,0-13.4-2.3-17.7-6.9
	c-4.4-4.6-6.6-11-6.6-19.3c0-8.6,2.2-15.2,6.6-20s10.1-7.1,17.2-7.1c6.8,0,12.4,2.3,16.7,7s6.5,11.2,6.5,19.6v2.3h-38
	c0.3,5.6,1.9,9.9,4.8,12.9c2.8,2.9,6.6,4.6,10.7,4.5c2.9,0.1,5.8-0.8,8.1-2.5C1076.5,423.8,1078.3,421.2,1079.6,417.5z
	 M1051.2,403.5h28.5c-0.4-4.3-1.5-7.5-3.3-9.6c-2.6-3.3-6.6-5.1-10.7-5c-3.7-0.1-7.3,1.4-10,4
	C1052.9,395.7,1051.3,399.5,1051.2,403.5L1051.2,403.5z"/>
<path class="st0" d="M1099,453.6l-1-8.1c1.6,0.5,3.3,0.7,5,0.8c1.6,0.1,3.2-0.3,4.6-1c1.2-0.6,2.1-1.6,2.8-2.7
	c1.1-2.1,1.9-4.2,2.6-6.4c0.2-0.5,0.4-1.2,0.8-2.1l-19.3-51.1h9.3l10.6,29.5c1.4,3.8,2.6,7.7,3.7,11.8c1-3.9,2.2-7.8,3.6-11.6
	l10.9-29.7h8.6l-19.4,51.9c-1.4,4-3,7.8-4.8,11.6c-1.2,2.5-3,4.6-5.3,6.3c-2.1,1.4-4.6,2.1-7.1,2
	C1102.7,454.6,1100.8,454.2,1099,453.6z"/>
<path class="st0" d="M1145.3,408.4c0-9.4,2.6-16.4,7.9-21c4.5-3.8,10.1-5.8,16-5.7c7,0,12.8,2.3,17.2,6.9c4.4,4.6,6.7,10.9,6.7,19
	c0,6.6-1,11.7-3,15.5c-1.9,3.7-4.9,6.8-8.6,8.8c-3.8,2.1-8,3.1-12.3,3.1c-7.1,0-12.9-2.3-17.3-6.9S1145.3,417,1145.3,408.4z
	 M1154.2,408.4c0,6.5,1.4,11.4,4.3,14.7c5.2,5.9,14.2,6.5,20.1,1.4c0.5-0.4,1-0.9,1.4-1.4c2.8-3.3,4.3-8.2,4.3-14.9
	c0-6.3-1.4-11.1-4.3-14.3c-5.2-5.9-14.2-6.5-20.1-1.3c0,0,0,0,0,0c-0.5,0.4-0.9,0.9-1.3,1.3C1155.6,397.1,1154.2,401.9,1154.2,408.4
	z"/>
<path class="st0" d="M1203.2,433.9v-51h7.8v7.2c3.8-5.6,9.2-8.4,16.2-8.4c2.9,0,5.8,0.5,8.5,1.7c2.3,0.9,4.3,2.4,5.8,4.3
	c1.3,1.9,2.3,4.1,2.7,6.4c0.4,2.8,0.6,5.6,0.5,8.4v31.4h-8.7v-31c0.1-2.7-0.2-5.3-1-7.9c-0.7-1.8-1.9-3.2-3.6-4.2
	c-1.8-1.1-3.9-1.6-6-1.6c-3.5-0.1-6.9,1.2-9.5,3.5c-2.7,2.3-4,6.8-4,13.3V434L1203.2,433.9z"/>
<path class="st0" d="M1291,433.9v-6.4c-3.2,5.1-8,7.6-14.3,7.6c-4,0-7.9-1.1-11.2-3.4c-3.5-2.3-6.2-5.6-7.9-9.4
	c-1.9-4.4-2.9-9.1-2.8-13.9c-0.1-4.7,0.8-9.5,2.6-13.9c1.5-3.9,4.2-7.2,7.6-9.5c3.4-2.2,7.3-3.3,11.4-3.3c5.5-0.1,10.8,2.5,14.1,7
	v-25.2h8.6v70.4H1291z M1263.7,408.5c0,6.5,1.4,11.4,4.1,14.6c2.3,3,5.9,4.8,9.8,4.9c3.8,0,7.3-1.7,9.6-4.6c2.7-3.1,4-7.8,4-14.1
	c0-7-1.3-12.1-4-15.4c-2.4-3.1-6-4.9-9.9-4.9c-3.8,0-7.3,1.7-9.6,4.7C1265,396.8,1263.7,401.7,1263.7,408.5L1263.7,408.5z"/>
<path class="st0" d="M1347.9,433.9h-8v-70.4h8.7v25.1c3.3-4.4,8.5-7,14-6.9c3.1,0,6.1,0.6,8.9,1.9c2.7,1.2,5.1,3,6.9,5.3
	c1.9,2.5,3.4,5.3,4.2,8.3c1,3.4,1.6,6.9,1.5,10.4c0,8.7-2.2,15.5-6.5,20.3c-3.9,4.6-9.6,7.2-15.6,7.2c-5.7,0.2-11.1-2.7-14.2-7.5
	L1347.9,433.9z M1347.8,408.1c0,6.1,0.8,10.5,2.5,13.2c2.7,4.5,6.4,6.7,11,6.7c3.8,0,7-1.6,9.8-4.9s4.1-8.2,4.1-14.7
	c0-6.7-1.3-11.6-4-14.7c-2.3-3-5.8-4.8-9.6-4.8c-3.8,0-7,1.6-9.8,4.9S1347.8,401.8,1347.8,408.1z"/>
<path class="st0" d="M1391.4,408.4c0-9.4,2.6-16.4,7.9-21c4.5-3.8,10.1-5.8,16-5.7c7,0,12.7,2.3,17.2,6.9c4.4,4.6,6.7,10.9,6.7,19
	c0,6.6-1,11.7-3,15.5c-1.9,3.7-4.9,6.8-8.6,8.8c-3.8,2.1-8,3.2-12.3,3.1c-7.1,0-12.9-2.3-17.3-6.9
	C1393.5,423.6,1391.3,417,1391.4,408.4z M1400.3,408.4c0,6.5,1.4,11.4,4.3,14.7c5.2,5.9,14.1,6.6,20.1,1.4c0,0,0,0,0,0
	c0.5-0.4,1-0.9,1.4-1.4c2.8-3.3,4.3-8.2,4.3-14.9c0-6.3-1.4-11.1-4.3-14.3c-5.2-5.9-14.2-6.5-20.1-1.3c0,0,0,0,0,0
	c-0.5,0.4-0.9,0.9-1.3,1.3C1401.7,397.1,1400.3,401.9,1400.3,408.4z"/>
<path class="st0" d="M1482.7,433.9v-7.5c-4,5.8-9.4,8.6-16.2,8.6c-2.9,0-5.8-0.6-8.4-1.7c-2.3-0.9-4.3-2.4-5.8-4.4
	c-1.3-1.9-2.2-4.1-2.7-6.4c-0.4-2.7-0.6-5.4-0.5-8.1v-31.6h8.6v28.3c-0.1,3.1,0.1,6.1,0.5,9.1c0.5,2.1,1.7,4,3.5,5.4
	c1.9,1.3,4.2,2,6.5,2c2.6,0,5.1-0.7,7.3-2c2.2-1.2,3.9-3.1,4.8-5.4c0.9-2.3,1.4-5.6,1.4-10v-27.3h8.6v51H1482.7z"/>
<path class="st0" d="M1504,433.9v-51h7.8v7.2c3.7-5.6,9.2-8.4,16.2-8.4c2.9,0,5.8,0.5,8.5,1.7c2.3,0.9,4.3,2.4,5.8,4.3
	c1.3,1.9,2.3,4.1,2.7,6.4c0.4,2.8,0.6,5.6,0.5,8.4v31.4h-8.6v-31c0.1-2.7-0.2-5.3-1-7.9c-0.7-1.8-1.9-3.2-3.6-4.2
	c-1.8-1.1-3.9-1.6-6-1.6c-3.5-0.1-6.9,1.2-9.5,3.5c-2.7,2.3-4,6.8-4,13.3V434L1504,433.9z"/>
<path class="st0" d="M1591.8,433.9v-6.4c-3.2,5.1-8,7.6-14.3,7.6c-4,0-7.9-1.1-11.2-3.4c-3.5-2.3-6.2-5.6-7.9-9.4
	c-1.9-4.4-2.9-9.1-2.8-13.9c-0.1-4.7,0.8-9.4,2.5-13.9c1.5-3.9,4.2-7.2,7.6-9.5c3.4-2.2,7.3-3.3,11.4-3.3c5.5-0.1,10.8,2.5,14.1,7
	v-25.2h8.6v70.4H1591.8z M1564.5,408.5c0,6.5,1.4,11.4,4.1,14.6c2.3,3,5.9,4.8,9.8,4.9c3.7,0,7.3-1.7,9.6-4.6c2.7-3.1,4-7.8,4-14.1
	c0-7-1.3-12.1-4-15.4c-2.4-3.1-6.1-4.9-10-4.8c-3.8,0-7.3,1.7-9.6,4.7C1565.8,396.8,1564.4,401.8,1564.5,408.5L1564.5,408.5z"/>
<path class="st0" d="M1646.7,427.6c-2.7,2.4-5.9,4.4-9.2,5.8c-3,1.1-6.3,1.7-9.5,1.7c-5.6,0-9.9-1.4-12.9-4.1
	c-3-2.7-4.6-6.5-4.5-10.5c0-2.4,0.6-4.7,1.7-6.8c1.1-2,2.6-3.7,4.5-5c1.9-1.3,4-2.2,6.2-2.8c2.5-0.6,5.1-1,7.7-1.3
	c7-0.8,12.1-1.8,15.4-3v-2.2c0-3.5-0.8-6-2.4-7.5c-2.2-2-5.5-2.9-9.8-2.9c-4.1,0-7.1,0.7-9,2.1c-1.9,1.4-3.4,3.9-4.3,7.6l-8.4-1.1
	c0.6-3.2,1.9-6.2,3.8-8.8c2-2.4,4.7-4.2,7.6-5.1c3.7-1.3,7.6-1.9,11.6-1.8c3.6-0.1,7.2,0.4,10.6,1.5c2.3,0.7,4.4,2.1,6,3.9
	c1.4,1.7,2.3,3.7,2.7,5.9c0.4,2.6,0.5,5.3,0.4,8v11.5c0,8,0.2,13.1,0.6,15.2c0.4,2.2,1.1,4.2,2.2,6.1h-9
	C1647.4,431.9,1646.9,429.8,1646.7,427.6z M1645.9,408.3c-3.1,1.3-7.8,2.4-14.1,3.3c-2.6,0.3-5.1,0.9-7.5,1.7
	c-1.4,0.6-2.6,1.6-3.4,2.8c-2,3.2-1.4,7.4,1.4,9.9c1.7,1.5,4.3,2.3,7.7,2.3c3.1,0.1,6.2-0.7,8.9-2.2c2.5-1.3,4.5-3.4,5.7-6
	c0.9-2,1.4-4.8,1.4-8.6V408.3z"/>
<path class="st0" d="M1668,433.9v-51h7.8v7.7c2-3.6,3.8-6,5.5-7.1c1.6-1.1,3.6-1.7,5.5-1.7c3.2,0.1,6.2,1,8.9,2.8l-3,8
	c-1.9-1.2-4.1-1.8-6.3-1.9c-1.8,0-3.6,0.6-5.1,1.7c-1.5,1.2-2.7,2.9-3.2,4.7c-1,3.3-1.5,6.7-1.4,10.1v26.7L1668,433.9z"/>
<path class="st0" d="M1700.9,373.5v-9.9h8.7v9.9H1700.9z M1700.9,433.9v-51h8.7v51H1700.9z"/>
<path class="st0" d="M1757.6,417.5l8.9,1.1c-1.2,4.8-3.9,9.1-7.8,12.1c-3.8,2.9-8.7,4.3-14.6,4.3c-7.5,0-13.4-2.3-17.8-6.9
	c-4.4-4.6-6.6-11-6.6-19.3c0-8.6,2.2-15.2,6.6-20c4.4-4.8,10.2-7.1,17.2-7.1c6.8,0,12.4,2.3,16.7,7c4.3,4.7,6.5,11.2,6.5,19.6v2.3
	h-38c0.3,5.6,1.9,9.9,4.8,12.9c2.8,2.9,6.6,4.6,10.7,4.5c2.9,0.1,5.8-0.8,8.1-2.5C1754.5,423.8,1756.3,421.2,1757.6,417.5z
	 M1729.2,403.5h28.5c-0.4-4.3-1.5-7.5-3.3-9.6c-2.6-3.3-6.6-5.1-10.7-5c-3.7-0.1-7.3,1.4-10,4
	C1730.9,395.7,1729.3,399.5,1729.2,403.5L1729.2,403.5z"/>
<path class="st0" d="M1773.9,418.7l8.6-1.3c0.3,3,1.7,5.9,4,7.9c2.2,1.8,5.3,2.7,9.2,2.7s6.9-0.8,8.8-2.4c1.8-1.3,2.9-3.4,2.9-5.7
	c0-1.9-0.9-3.6-2.6-4.6c-1.2-0.8-4.1-1.7-8.8-2.9c-4.5-1-8.9-2.4-13.2-4.1c-2.3-1-4.2-2.7-5.6-4.9c-1.3-2.1-1.9-4.4-1.9-6.9
	c0-2.2,0.5-4.4,1.6-6.3c1-1.9,2.5-3.6,4.2-4.8c1.7-1.1,3.5-2,5.5-2.5c2.4-0.7,4.9-1,7.5-1c3.6-0.1,7.2,0.5,10.5,1.7
	c2.6,0.9,5,2.5,6.7,4.7c1.6,2.4,2.6,5.1,3,7.9l-8.4,1.1c-0.3-2.4-1.5-4.6-3.3-6.1c-1.8-1.5-4.4-2.2-7.8-2.2c-4,0-6.8,0.6-8.5,2
	c-1.5,1-2.5,2.8-2.5,4.6c0,1.1,0.3,2.1,1,3c0.9,1.1,2,1.8,3.3,2.3c0.9,0.3,3.4,1.1,7.6,2.2c4.3,1.1,8.6,2.4,12.8,4
	c2.3,0.9,4.3,2.5,5.7,4.5c1.4,2.2,2.1,4.8,2.1,7.4c0,2.9-0.9,5.7-2.5,8.1c-1.8,2.6-4.3,4.7-7.3,5.9c-3.4,1.4-7.1,2.2-10.8,2.1
	c-6.6,0-11.7-1.4-15.2-4.1S1774.8,424.1,1773.9,418.7z"/>
<path class="st0" d="M1841,46.6v-1.9c0.9,0,1.8-0.1,2.7-0.2c0.3,0,0.7-0.2,0.9-0.4c0.2-0.3,0.4-0.6,0.4-1c0.1-0.7,0.2-3,0.3-7.2
	c0-2.9,0.1-5.9,0.1-9v-9.2c0-0.2-0.6-0.2-1.6-0.2c-2.1,0-3.9,0.1-5.4,0.2c-0.5,0-1,0.1-1.5,0.2c-0.1,0.1-0.2,0.2-0.3,0.4
	c-0.1,0.2-0.2,1.5-0.4,4h-2c0.1-2.5,0-5-0.2-7.5l0.2-0.2c4.8,0.2,9.4,0.3,13.9,0.3c4.5,0,9.5-0.1,15.1-0.3l0.2,0.4
	c-0.3,2.1-0.5,4.5-0.6,7.3h-1.8c0-1.4-0.1-2.8-0.4-4.1c-0.2-0.2-0.5-0.3-0.7-0.3c-2.4-0.3-4.8-0.4-7.2-0.3c-0.3,0-0.5,0-0.6,0.1
	c-0.1,0.4-0.1,0.8-0.1,1.2l-0.1,15.3c0,4.4,0,7.1,0.1,8.1s0.3,1.6,0.6,1.8c1.2,0.3,2.4,0.5,3.6,0.5v1.9c-2.2-0.1-4.6-0.2-7.1-0.2
	C1845.7,46.4,1843,46.5,1841,46.6z"/>
<path class="st0" d="M1865.6,46.6v-1.9l1.3-0.1c0.7,0,1.4-0.2,2-0.6c0.3-0.3,0.4-1.4,0.5-3.2c0.1-3.7,0.2-7.8,0.2-12.1v-7.9
	c0.1-1.1-0.1-2.2-0.3-3.3c-0.1-0.2-0.3-0.4-0.5-0.5c-1.1-0.2-2.1-0.4-3.2-0.4v-1.9c1.8,0.1,3.6,0.1,5.4,0.1c2,0,4,0,5.9-0.1
	c0.8,1.9,1.7,3.8,2.5,5.7c0.6,1.3,3.4,7,8.2,17.1c5.1-10.3,8.8-17.9,10.8-22.8c1.8,0.1,3.5,0.1,5.2,0.1c1.9,0,3.8,0,5.6-0.1v1.9
	c-2,0.1-3.1,0.3-3.4,0.5s-0.4,0.9-0.5,2.1c-0.1,1.9-0.2,5.5-0.2,10.9c0,2.7,0,5.5,0.1,8.5c0,1.7,0.1,3.4,0.3,5.1
	c0.1,0.2,0.2,0.4,0.4,0.5c1,0.2,2.1,0.4,3.2,0.4v1.9c-2.4-0.1-4.6-0.2-6.6-0.2s-4.6,0.1-7.9,0.2v-1.9h1.3c0.7,0.1,1.4-0.1,2-0.4
	c0.4-0.6,0.6-1.3,0.5-2c0.1-1.1,0.1-3.6,0.1-7.5V21c-2.3,4.7-5.3,10.8-8.9,18.4c-1.5,3.1-2.6,5.7-3.5,7.6h-1.5
	c-1.1-2.6-2.6-5.9-4.6-9.9l-7.8-16.1v3.1c0,8.5,0,14.4,0.1,17.6c-0.1,0.8,0.1,1.7,0.5,2.4c0.3,0.3,1.4,0.5,3.4,0.6v1.9
	c-1.5-0.1-3.1-0.2-4.6-0.2C1869.5,46.4,1867.4,46.5,1865.6,46.6z"/>
</svg>
